<svg width="71" height="70" viewBox="0 0 71 70" fill="none" xmlns="http://www.w3.org/2000/svg">
<rect x="0.0574341" width="70.1828" height="70" rx="15" fill="#F25822" fill-opacity="0.25"/>
<path d="M23.8973 25.7778V45.2222H46.1775V25.7778H23.8973ZM22.5048 23H47.57C47.9394 23 48.2935 23.1463 48.5547 23.4068C48.8158 23.6673 48.9625 24.0205 48.9625 24.3889V46.6111C48.9625 46.9795 48.8158 47.3327 48.5547 47.5932C48.2935 47.8537 47.9394 48 47.57 48H22.5048C22.1354 48 21.7812 47.8537 21.5201 47.5932C21.259 47.3327 21.1122 46.9795 21.1122 46.6111V24.3889C21.1122 24.0205 21.259 23.6673 21.5201 23.4068C21.7812 23.1463 22.1354 23 22.5048 23V23ZM38.9267 32.4347L36.4299 29.9444H43.3925V36.8889L40.8957 34.3986L35.515 39.7653L32.5615 36.8194L28.6221 40.7472L26.6531 38.7833L32.5615 32.8903L35.515 35.8375L38.9267 32.4347Z" fill="#F25822"/>
</svg>
